<svg width="1200" height="420" viewBox="0 0 1200 420" fill="none" xmlns="http://www.w3.org/2000/svg">
  <defs>
    <linearGradient id="bgGradient" x1="40" y1="30" x2="320" y2="330" gradientUnits="userSpaceOnUse">
      <stop offset="0" stop-color="#17172A"/>
      <stop offset="0.55" stop-color="#111827"/>
      <stop offset="1" stop-color="#09090B"/>
    </linearGradient>
    <linearGradient id="violetGlow" x1="76" y1="72" x2="254" y2="260" gradientUnits="userSpaceOnUse">
      <stop offset="0" stop-color="#A5B4FC"/>
      <stop offset="0.45" stop-color="#818CF8"/>
      <stop offset="1" stop-color="#4F46E5"/>
    </linearGradient>
    <linearGradient id="greenGlow" x1="214" y1="164" x2="108" y2="248" gradientUnits="userSpaceOnUse">
      <stop offset="0" stop-color="#86EFAC"/>
      <stop offset="0.55" stop-color="#4ADE80"/>
      <stop offset="1" stop-color="#16A34A"/>
    </linearGradient>
    <linearGradient id="wordGradient" x1="380" y1="108" x2="994" y2="312" gradientUnits="userSpaceOnUse">
      <stop offset="0" stop-color="#F8FAFC"/>
      <stop offset="0.45" stop-color="#C4B5FD"/>
      <stop offset="1" stop-color="#86EFAC"/>
    </linearGradient>
    <filter id="softShadow" x="0" y="0" width="360" height="360" filterUnits="userSpaceOnUse" color-interpolation-filters="sRGB">
      <feFlood flood-opacity="0" result="BackgroundImageFix"/>
      <feColorMatrix in="SourceAlpha" type="matrix" values="0 0 0 0 0 0 0 0 0 0 0 0 0 0 0 0 0 0 127 0" result="hardAlpha"/>
      <feOffset dy="18"/>
      <feGaussianBlur stdDeviation="20"/>
      <feColorMatrix type="matrix" values="0 0 0 0 0.0314 0 0 0 0 0.0431 0 0 0 0 0.1216 0 0 0 0.5 0"/>
      <feBlend mode="normal" in2="BackgroundImageFix" result="effect1_dropShadow_1_2"/>
      <feBlend mode="normal" in="SourceGraphic" in2="effect1_dropShadow_1_2" result="shape"/>
    </filter>
    <filter id="violetBlur" x="26" y="18" width="304" height="304" filterUnits="userSpaceOnUse" color-interpolation-filters="sRGB">
      <feFlood flood-opacity="0" result="BackgroundImageFix"/>
      <feBlend mode="normal" in="SourceGraphic" in2="BackgroundImageFix" result="shape"/>
      <feGaussianBlur stdDeviation="26" result="effect1_foregroundBlur_1_2"/>
    </filter>
    <filter id="greenBlur" x="42" y="118" width="246" height="210" filterUnits="userSpaceOnUse" color-interpolation-filters="sRGB">
      <feFlood flood-opacity="0" result="BackgroundImageFix"/>
      <feBlend mode="normal" in="SourceGraphic" in2="BackgroundImageFix" result="shape"/>
      <feGaussianBlur stdDeviation="20" result="effect1_foregroundBlur_1_2"/>
    </filter>
  </defs>

  <g filter="url(#softShadow)">
    <rect x="40" y="40" width="280" height="280" rx="78" fill="url(#bgGradient)"/>
    <rect x="41.5" y="41.5" width="277" height="277" rx="76.5" stroke="rgba(255,255,255,0.12)" stroke-opacity="0.18" stroke-width="3"/>
  </g>

  <g opacity="0.9" filter="url(#violetBlur)">
    <circle cx="178" cy="104" r="54" fill="#818CF8"/>
  </g>
  <g opacity="0.8" filter="url(#greenBlur)">
    <ellipse cx="174" cy="223" rx="70" ry="34" fill="#4ADE80"/>
  </g>

  <path d="M180 82L236 108V160C236 205 209.6 245.7 180 260C150.4 245.7 124 205 124 160V108L180 82Z" fill="url(#violetGlow)"/>
  <path d="M180 100L220 118V159C220 192.2 201.1 221.2 180 233C158.9 221.2 140 192.2 140 159V118L180 100Z" fill="#0B1020" fill-opacity="0.72"/>

  <circle cx="158" cy="145" r="14" fill="url(#violetGlow)"/>
  <circle cx="202" cy="145" r="14" fill="url(#greenGlow)"/>
  <circle cx="180" cy="192" r="16" fill="url(#greenGlow)"/>
  <path d="M168 151L192 151" stroke="#DDE7FF" stroke-width="10" stroke-linecap="round"/>
  <path d="M166.5 157.5L173.5 177.5" stroke="#DDE7FF" stroke-width="10" stroke-linecap="round"/>
  <path d="M193.5 157.5L186.5 177.5" stroke="#DDE7FF" stroke-width="10" stroke-linecap="round"/>

  <path d="M146 236C160 214 200 214 214 236" stroke="#4ADE80" stroke-width="10" stroke-linecap="round" opacity="0.85"/>
  <circle cx="180" cy="236" r="6" fill="#86EFAC"/>

  <text x="380" y="178" fill="url(#wordGradient)" font-family="Inter, Segoe UI, Arial, sans-serif" font-size="108" font-weight="800" letter-spacing="1.5">TeenLink</text>
  <text x="385" y="228" fill="#A1A1AA" font-family="Inter, Segoe UI, Arial, sans-serif" font-size="28" font-weight="600" letter-spacing="6">SECURE PEER TO PEER CHAT</text>
  <text x="386" y="280" fill="#818CF8" font-family="Inter, Segoe UI, Arial, sans-serif" font-size="22" font-weight="700" letter-spacing="3.5">IDENTITY</text>
  <text x="540" y="280" fill="#52525B" font-family="Inter, Segoe UI, Arial, sans-serif" font-size="22" font-weight="700" letter-spacing="3.5">/</text>
  <text x="568" y="280" fill="#818CF8" font-family="Inter, Segoe UI, Arial, sans-serif" font-size="22" font-weight="700" letter-spacing="3.5">ENCRYPTION</text>
  <text x="790" y="280" fill="#52525B" font-family="Inter, Segoe UI, Arial, sans-serif" font-size="22" font-weight="700" letter-spacing="3.5">/</text>
  <text x="818" y="280" fill="#4ADE80" font-family="Inter, Segoe UI, Arial, sans-serif" font-size="22" font-weight="700" letter-spacing="3.5">PRIVACY</text>
</svg>
